REM DIRINDEX 1\2,1\3,1\4,1\5
REM DIRNAME cjc154,folder01,folder02,folder03,folder04
TITLE ""
FILE "CD1Track12.mp3" MP3
  TRACK 01 AUDIO
    TITLE "5:cjc154_1143"
    INDEX 01 00:00:00
  TRACK 02 AUDIO
    TITLE "0:"
    INDEX 01 00:01:34
  TRACK 03 AUDIO
    TITLE "2:cjc154_1144"
    INDEX 01 00:02:40
  TRACK 04 AUDIO
    TITLE "3:cjc154_1145"
    INDEX 01 00:06:18
  TRACK 05 AUDIO
    TITLE "2:cjc154_1146"
    INDEX 01 00:10:00
  TRACK 06 AUDIO
    TITLE "3:cjc154_1147"
    INDEX 01 00:11:39
  TRACK 07 AUDIO
    TITLE "2:cjc154_1148"
    INDEX 01 00:13:08
  TRACK 08 AUDIO
    TITLE "3:cjc154_1149"
    INDEX 01 00:15:38
  TRACK 09 AUDIO
    TITLE "2:cjc154_1150"
    INDEX 01 00:18:03
  TRACK 10 AUDIO
    TITLE "3:cjc154_1151"
    INDEX 01 00:19:36
  TRACK 11 AUDIO
    TITLE "2:cjc154_1152"
    INDEX 01 00:21:04
  TRACK 12 AUDIO
    TITLE "3:cjc154_1153"
    INDEX 01 00:23:34
  TRACK 13 AUDIO
    TITLE "2:cjc154_1154"
    INDEX 01 00:25:68
  TRACK 14 AUDIO
    TITLE "3:cjc154_1155"
    INDEX 01 00:28:47
  TRACK 15 AUDIO
    TITLE "2:cjc154_1156"
    INDEX 01 00:31:37
  TRACK 16 AUDIO
    TITLE "3:cjc154_1157"
    INDEX 01 00:33:05
  TRACK 17 AUDIO
    TITLE "2:cjc154_1158"
    INDEX 01 00:34:55
  TRACK 18 AUDIO
    TITLE "3:cjc154_1159"
    INDEX 01 00:36:35
  TRACK 19 AUDIO
    TITLE "2:cjc154_1160"
    INDEX 01 00:38:24
  TRACK 20 AUDIO
    TITLE "3:cjc154_1161"
    INDEX 01 00:39:58
  TRACK 21 AUDIO
    TITLE "2:cjc154_1162"
    INDEX 01 00:41:28
  TRACK 22 AUDIO
    TITLE "3:cjc154_1163"
    INDEX 01 00:43:13
  TRACK 23 AUDIO
    TITLE "2:cjc154_1164"
    INDEX 01 00:45:04
  TRACK 24 AUDIO
    TITLE "3:cjc154_1165"
    INDEX 01 00:46:60
  TRACK 25 AUDIO
    TITLE "2:cjc154_1166"
    INDEX 01 00:48:48
  TRACK 26 AUDIO
    TITLE "3:cjc154_1167"
    INDEX 01 00:50:66
  TRACK 27 AUDIO
    TITLE "2:cjc154_1168"
    INDEX 01 00:53:21
  TRACK 28 AUDIO
    TITLE "3:cjc154_1169"
    INDEX 01 00:55:57
  TRACK 29 AUDIO
    TITLE "2:cjc154_1170"
    INDEX 01 00:58:18
  TRACK 30 AUDIO
    TITLE "3:cjc154_1171"
    INDEX 01 01:00:55
  TRACK 31 AUDIO
    TITLE "2:cjc154_1172"
    INDEX 01 01:03:18
  TRACK 32 AUDIO
    TITLE "3:cjc154_1173"
    INDEX 01 01:04:27
  TRACK 33 AUDIO
    TITLE "2:cjc154_1174"
    INDEX 01 01:05:40
  TRACK 34 AUDIO
    TITLE "3:cjc154_1175"
    INDEX 01 01:07:64
  TRACK 35 AUDIO
    TITLE "2:cjc154_1176"
    INDEX 01 01:10:22
  TRACK 36 AUDIO
    TITLE "3:cjc154_1177"
    INDEX 01 01:12:17
  TRACK 37 AUDIO
    TITLE "2:cjc154_1178"
    INDEX 01 01:14:17
  TRACK 38 AUDIO
    TITLE "3:cjc154_1179"
    INDEX 01 01:16:52
  TRACK 39 AUDIO
    TITLE "2:cjc154_1180"
    INDEX 01 01:19:17
  TRACK 40 AUDIO
    TITLE "3:cjc154_1181"
    INDEX 01 01:21:43
  TRACK 41 AUDIO
    TITLE "2:cjc154_1182"
    INDEX 01 01:23:73
  TRACK 42 AUDIO
    TITLE "3:cjc154_1183"
    INDEX 01 01:25:37
  TRACK 43 AUDIO
    TITLE "2:cjc154_1184"
    INDEX 01 01:27:14
  TRACK 44 AUDIO
    TITLE "3:cjc154_1185"
    INDEX 01 01:29:21
  TRACK 45 AUDIO
    TITLE "2:cjc154_1186"
    INDEX 01 01:31:38
  TRACK 46 AUDIO
    TITLE "3:cjc154_1187"
    INDEX 01 01:33:11
  TRACK 47 AUDIO
    TITLE "2:cjc154_1188"
    INDEX 01 01:34:73
  TRACK 48 AUDIO
    TITLE "3:cjc154_1189"
    INDEX 01 01:36:62
  TRACK 49 AUDIO
    TITLE "2:cjc154_1190"
    INDEX 01 01:38:57
  TRACK 50 AUDIO
    TITLE "3:cjc154_1191"
    INDEX 01 01:39:63
  TRACK 51 AUDIO
    TITLE "2:cjc154_1192"
    INDEX 01 01:41:01
  TRACK 52 AUDIO
    TITLE "3:cjc154_1193"
    INDEX 01 01:43:70
  TRACK 53 AUDIO
    TITLE "2:cjc154_1194"
    INDEX 01 01:46:74
  TRACK 54 AUDIO
    TITLE "3:cjc154_1195"
    INDEX 01 01:48:48
  TRACK 55 AUDIO
    TITLE "2:cjc154_1196"
    INDEX 01 01:50:31
  TRACK 56 AUDIO
    TITLE "3:cjc154_1197"
    INDEX 01 01:51:68
  TRACK 57 AUDIO
    TITLE "2:cjc154_1198"
    INDEX 01 01:53:41
  TRACK 58 AUDIO
    TITLE "3:cjc154_1199"
    INDEX 01 01:54:60
  TRACK 59 AUDIO
    TITLE "2:cjc154_1200"
    INDEX 01 01:56:14
  TRACK 60 AUDIO
    TITLE "3:cjc154_1201"
    INDEX 01 01:58:11
  TRACK 61 AUDIO
    TITLE "2:cjc154_1202"
    INDEX 01 02:00:14
  TRACK 62 AUDIO
    TITLE "3:cjc154_1203"
    INDEX 01 02:02:17
  TRACK 63 AUDIO
    TITLE "2:cjc154_1204"
    INDEX 01 02:04:27
  TRACK 64 AUDIO
    TITLE "3:cjc154_1205"
    INDEX 01 02:07:26
  TRACK 65 AUDIO
    TITLE "2:cjc154_1206"
    INDEX 01 02:10:28
  TRACK 66 AUDIO
    TITLE "3:cjc154_1207"
    INDEX 01 02:12:23
  TRACK 67 AUDIO
    TITLE "2:cjc154_1208"
    INDEX 01 02:14:24
  TRACK 68 AUDIO
    TITLE "3:cjc154_1209"
    INDEX 01 02:15:54
  TRACK 69 AUDIO
    TITLE "2:cjc154_1210"
    INDEX 01 02:17:20
  TRACK 70 AUDIO
    TITLE "3:cjc154_1211"
    INDEX 01 02:19:21
  TRACK 71 AUDIO
    TITLE "2:cjc154_1212"
    INDEX 01 02:21:32
  TRACK 72 AUDIO
    TITLE "3:cjc154_1213"
    INDEX 01 02:23:05
  TRACK 73 AUDIO
    TITLE "2:cjc154_1214"
    INDEX 01 02:24:65
  TRACK 74 AUDIO
    TITLE "3:cjc154_1215"
    INDEX 01 02:26:48
  TRACK 75 AUDIO
    TITLE "2:cjc154_1216"
    INDEX 01 02:28:35
  TRACK 76 AUDIO
    TITLE "3:cjc154_1217"
    INDEX 01 02:30:38
  TRACK 77 AUDIO
    TITLE "2:cjc154_1218"
    INDEX 01 02:32:49
  TRACK 78 AUDIO
    TITLE "3:cjc154_1219"
    INDEX 01 02:34:22
  TRACK 79 AUDIO
    TITLE "2:cjc154_1220"
    INDEX 01 02:36:02
  TRACK 80 AUDIO
    TITLE "3:cjc154_1221"
    INDEX 01 02:38:18
  TRACK 81 AUDIO
    TITLE "2:cjc154_1222"
    INDEX 01 02:40:41
  TRACK 82 AUDIO
    TITLE "3:cjc154_1223"
    INDEX 01 02:42:40
  TRACK 83 AUDIO
    TITLE "2:cjc154_1224"
    INDEX 01 02:44:40
  TRACK 84 AUDIO
    TITLE "3:cjc154_1225"
    INDEX 01 02:45:67
  TRACK 85 AUDIO
    TITLE "2:cjc154_1226"
    INDEX 01 02:47:25
  TRACK 86 AUDIO
    TITLE "3:cjc154_1227"
    INDEX 01 02:48:46
  TRACK 87 AUDIO
    TITLE "2:cjc154_1228"
    INDEX 01 02:50:02
  TRACK 88 AUDIO
    TITLE "3:cjc154_1229"
    INDEX 01 02:52:11
  TRACK 89 AUDIO
    TITLE "2:cjc154_1230"
    INDEX 01 02:54:21
  TRACK 90 AUDIO
    TITLE "3:cjc154_1231"
    INDEX 01 02:56:08
  TRACK 91 AUDIO
    TITLE "2:cjc154_1232"
    INDEX 01 02:58:07
  TRACK 92 AUDIO
    TITLE "3:cjc154_1233"
    INDEX 01 03:00:51
  TRACK 93 AUDIO
    TITLE "2:cjc154_1234"
    INDEX 01 03:03:24
  TRACK 94 AUDIO
    TITLE "3:cjc154_1235"
    INDEX 01 03:04:63
  TRACK 95 AUDIO
    TITLE "2:cjc154_1236"
    INDEX 01 03:06:28
  TRACK 96 AUDIO
    TITLE "3:cjc154_1237"
    INDEX 01 03:07:65
  TRACK 97 AUDIO
    TITLE "2:cjc154_1238"
    INDEX 01 03:09:40
  TRACK 98 AUDIO
    TITLE "3:cjc154_1239"
    INDEX 01 03:10:57
  TRACK 99 AUDIO
    TITLE "2:cjc154_1240"
    INDEX 01 03:12:05
  TRACK 100 AUDIO
    TITLE "3:cjc154_1241"
    INDEX 01 03:14:65
  TRACK 101 AUDIO
    TITLE "2:cjc154_1242"
    INDEX 01 03:17:54
  TRACK 102 AUDIO
    TITLE "3:cjc154_1243"
    INDEX 01 03:20:58
  TRACK 103 AUDIO
    TITLE "2:cjc154_1244"
    INDEX 01 03:23:74
  TRACK 104 AUDIO
    TITLE "3:cjc154_1245"
    INDEX 01 03:25:71
  TRACK 105 AUDIO
    TITLE "2:cjc154_1246"
    INDEX 01 03:28:00
  TRACK 106 AUDIO
    TITLE "3:cjc154_1247"
    INDEX 01 03:29:57
  TRACK 107 AUDIO
    TITLE "2:cjc154_1248"
    INDEX 01 03:31:44
  TRACK 108 AUDIO
    TITLE "3:cjc154_1249"
    INDEX 01 03:33:62
  TRACK 109 AUDIO
    TITLE "2:cjc154_1250"
    INDEX 01 03:36:12
  TRACK 110 AUDIO
    TITLE "3:cjc154_1251"
    INDEX 01 03:37:62
  TRACK 111 AUDIO
    TITLE "2:cjc154_1252"
    INDEX 01 03:39:39
  TRACK 112 AUDIO
    TITLE "3:cjc154_1253"
    INDEX 01 03:40:66
  TRACK 113 AUDIO
    TITLE "2:cjc154_1254"
    INDEX 01 03:42:24
  TRACK 114 AUDIO
    TITLE "3:cjc154_1255"
    INDEX 01 03:44:25
  TRACK 115 AUDIO
    TITLE "2:cjc154_1256"
    INDEX 01 03:46:40
  TRACK 116 AUDIO
    TITLE "3:cjc154_1257"
    INDEX 01 03:48:25
  TRACK 117 AUDIO
    TITLE "2:cjc154_1258"
    INDEX 01 03:50:16
  TRACK 118 AUDIO
    TITLE "3:cjc154_1259"
    INDEX 01 03:51:74
  TRACK 119 AUDIO
    TITLE "2:cjc154_1260"
    INDEX 01 03:53:63
  TRACK 120 AUDIO
    TITLE "3:cjc154_1261"
    INDEX 01 03:56:01
  TRACK 121 AUDIO
    TITLE "2:cjc154_1262"
    INDEX 01 03:58:27
  TRACK 122 AUDIO
    TITLE "3:cjc154_1263"
    INDEX 01 04:02:01
  TRACK 123 AUDIO
    TITLE "2:cjc154_1264"
    INDEX 01 04:05:57
  TRACK 124 AUDIO
    TITLE "3:cjc154_1265"
    INDEX 01 04:07:04
  TRACK 125 AUDIO
    TITLE "2:cjc154_1266"
    INDEX 01 04:08:33
  TRACK 126 AUDIO
    TITLE "3:cjc154_1267"
    INDEX 01 04:09:70
  TRACK 127 AUDIO
    TITLE "2:cjc154_1268"
    INDEX 01 04:11:45
  TRACK 128 AUDIO
    TITLE "3:cjc154_1269"
    INDEX 01 04:13:27
  TRACK 129 AUDIO
    TITLE "2:cjc154_1270"
    INDEX 01 04:15:10
  TRACK 130 AUDIO
    TITLE "3:cjc154_1271"
    INDEX 01 04:17:05
  TRACK 131 AUDIO
    TITLE "2:cjc154_1272"
    INDEX 01 04:19:06
  TRACK 132 AUDIO
    TITLE "3:cjc154_1273"
    INDEX 01 04:20:44
  TRACK 133 AUDIO
    TITLE "2:cjc154_1274"
    INDEX 01 04:22:18
  TRACK 134 AUDIO
    TITLE "3:cjc154_1275"
    INDEX 01 04:24:21
  TRACK 135 AUDIO
    TITLE "2:cjc154_1276"
    INDEX 01 04:26:31
  TRACK 136 AUDIO
    TITLE "3:cjc154_1277"
    INDEX 01 04:28:20
  TRACK 137 AUDIO
    TITLE "2:cjc154_1278"
    INDEX 01 04:30:15
  TRACK 138 AUDIO
    TITLE "3:cjc154_1279"
    INDEX 01 04:31:28
  TRACK 139 AUDIO
    TITLE "2:cjc154_1280"
    INDEX 01 04:32:46
  TRACK 140 AUDIO
    TITLE "3:cjc154_1281"
    INDEX 01 04:34:64
  TRACK 141 AUDIO
    TITLE "2:cjc154_1282"
    INDEX 01 04:37:21
  TRACK 142 AUDIO
    TITLE "3:cjc154_1283"
    INDEX 01 04:38:29
  TRACK 143 AUDIO
    TITLE "2:cjc154_1284"
    INDEX 01 04:39:48
  TRACK 144 AUDIO
    TITLE "3:cjc154_1285"
    INDEX 01 04:41:74
  TRACK 145 AUDIO
    TITLE "2:cjc154_1286"
    INDEX 01 04:44:39
  TRACK 146 AUDIO
    TITLE "3:cjc154_1287"
    INDEX 01 04:46:65
  TRACK 147 AUDIO
    TITLE "2:cjc154_1288"
    INDEX 01 04:49:19
  TRACK 148 AUDIO
    TITLE "3:cjc154_1289"
    INDEX 01 04:51:41
  TRACK 149 AUDIO
    TITLE "2:cjc154_1290"
    INDEX 01 04:53:67
  TRACK 150 AUDIO
    TITLE "3:cjc154_1291"
    INDEX 01 04:55:58
  TRACK 151 AUDIO
    TITLE "2:cjc154_1292"
    INDEX 01 04:57:47
  TRACK 152 AUDIO
    TITLE "3:cjc154_1293"
    INDEX 01 04:59:19
  TRACK 153 AUDIO
    TITLE "2:cjc154_1294"
    INDEX 01 05:00:71
  TRACK 154 AUDIO
    TITLE "3:cjc154_1295"
    INDEX 01 05:02:11
  TRACK 155 AUDIO
    TITLE "2:cjc154_1296"
    INDEX 01 05:03:30
  TRACK 156 AUDIO
    TITLE "3:cjc154_1297"
    INDEX 01 05:04:67
  TRACK 157 AUDIO
    TITLE "2:cjc154_1298"
    INDEX 01 05:06:39
  TRACK 158 AUDIO
    TITLE "3:cjc154_1299"
    INDEX 01 05:07:48
  TRACK 159 AUDIO
    TITLE "2:cjc154_1300"
    INDEX 01 05:08:63
  TRACK 160 AUDIO
    TITLE "3:cjc154_1301"
    INDEX 01 05:09:66
  TRACK 161 AUDIO
    TITLE "2:cjc154_1302"
    INDEX 01 05:11:08
  TRACK 162 AUDIO
    TITLE "3:cjc154_1303"
    INDEX 01 05:13:56
  TRACK 163 AUDIO
    TITLE "2:cjc154_1304"
    INDEX 01 05:16:33
  TRACK 164 AUDIO
    TITLE "3:cjc154_1305"
    INDEX 01 05:18:67
  TRACK 165 AUDIO
    TITLE "2:cjc154_1306"
    INDEX 01 05:21:32
  TRACK 166 AUDIO
    TITLE "3:cjc154_1307"
    INDEX 01 05:23:27
  TRACK 167 AUDIO
    TITLE "2:cjc154_1308"
    INDEX 01 05:25:28
  TRACK 168 AUDIO
    TITLE "3:cjc154_1309"
    INDEX 01 05:26:73
  TRACK 169 AUDIO
    TITLE "2:cjc154_1310"
    INDEX 01 05:28:40
  TRACK 170 AUDIO
    TITLE "3:cjc154_1311"
    INDEX 01 05:29:49
  TRACK 171 AUDIO
    TITLE "2:cjc154_1312"
    INDEX 01 05:30:66
  TRACK 172 AUDIO
    TITLE "3:cjc154_1313"
    INDEX 01 05:33:00
  TRACK 173 AUDIO
    TITLE "2:cjc154_1314"
    INDEX 01 05:35:21
  TRACK 174 AUDIO
    TITLE "3:cjc154_1315"
    INDEX 01 05:36:49
  TRACK 175 AUDIO
    TITLE "2:cjc154_1316"
    INDEX 01 05:38:19
  TRACK 176 AUDIO
    TITLE "3:cjc154_1317"
    INDEX 01 05:39:63
  TRACK 177 AUDIO
    TITLE "2:cjc154_1318"
    INDEX 01 05:41:45
  TRACK 178 AUDIO
    TITLE "3:cjc154_1319"
    INDEX 01 05:43:28
  TRACK 179 AUDIO
    TITLE "2:cjc154_1320"
    INDEX 01 05:45:13
  TRACK 180 AUDIO
    TITLE "3:cjc154_1321"
    INDEX 01 05:47:39
  TRACK 181 AUDIO
    TITLE "2:cjc154_1322"
    INDEX 01 05:49:74
  TRACK 182 AUDIO
    TITLE "3:cjc154_1323"
    INDEX 01 05:52:09
  TRACK 183 AUDIO
    TITLE "2:cjc154_1324"
    INDEX 01 05:54:26
  TRACK 184 AUDIO
    TITLE "3:cjc154_1325"
    INDEX 01 05:55:66
  TRACK 185 AUDIO
    TITLE "2:cjc154_1326"
    INDEX 01 05:57:40
  TRACK 186 AUDIO
    TITLE "3:cjc154_1327"
    INDEX 01 05:59:23
  TRACK 187 AUDIO
    TITLE "2:cjc154_1328"
    INDEX 01 06:01:08
  TRACK 188 AUDIO
    TITLE "3:cjc154_1329"
    INDEX 01 06:02:68
  TRACK 189 AUDIO
    TITLE "2:cjc154_1330"
    INDEX 01 06:04:58
  TRACK 190 AUDIO
    TITLE "3:cjc154_1331"
    INDEX 01 06:06:29
  TRACK 191 AUDIO
    TITLE "2:cjc154_1332"
    INDEX 01 06:08:10
  TRACK 192 AUDIO
    TITLE "3:cjc154_1333"
    INDEX 01 06:09:65
  TRACK 193 AUDIO
    TITLE "2:cjc154_1334"
    INDEX 01 06:11:54
  TRACK 194 AUDIO
    TITLE "3:cjc154_1335"
    INDEX 01 06:13:23
  TRACK 195 AUDIO
    TITLE "2:cjc154_1336"
    INDEX 01 06:15:06
  TRACK 196 AUDIO
    TITLE "3:cjc154_1337"
    INDEX 01 06:16:43
  TRACK 197 AUDIO
    TITLE "2:cjc154_1338"
    INDEX 01 06:18:17
  TRACK 198 AUDIO
    TITLE "3:cjc154_1339"
    INDEX 01 06:19:59
  TRACK 199 AUDIO
    TITLE "2:cjc154_1340"
    INDEX 01 06:21:36
  TRACK 200 AUDIO
    TITLE "3:cjc154_1341"
    INDEX 01 06:23:41
  TRACK 201 AUDIO
    TITLE "2:cjc154_1342"
    INDEX 01 06:25:50
  TRACK 202 AUDIO
    TITLE "3:cjc154_1343"
    INDEX 01 06:28:11
  TRACK 203 AUDIO
    TITLE "2:cjc154_1344"
    INDEX 01 06:30:55
  TRACK 204 AUDIO
    TITLE "3:cjc154_1345"
    INDEX 01 06:32:38
  TRACK 205 AUDIO
    TITLE "2:cjc154_1346"
    INDEX 01 06:34:25
  TRACK 206 AUDIO
    TITLE "3:cjc154_1347"
    INDEX 01 06:36:36
  TRACK 207 AUDIO
    TITLE "2:cjc154_1348"
    INDEX 01 06:38:54
  TRACK 208 AUDIO
    TITLE "3:cjc154_1349"
    INDEX 01 06:40:46
  TRACK 209 AUDIO
    TITLE "2:cjc154_1350"
    INDEX 01 06:42:41
  TRACK 210 AUDIO
    TITLE "3:cjc154_1351"
    INDEX 01 06:44:00
  TRACK 211 AUDIO
    TITLE "2:cjc154_1352"
    INDEX 01 06:45:43
  TRACK 212 AUDIO
    TITLE "3:cjc154_1353"
    INDEX 01 06:46:48
  TRACK 213 AUDIO
    TITLE "2:cjc154_1354"
    INDEX 01 06:47:50
  TRACK 214 AUDIO
    TITLE "3:cjc154_1355"
    INDEX 01 06:50:24
  TRACK 215 AUDIO
    TITLE "2:cjc154_1356"
    INDEX 01 06:53:05
  TRACK 216 AUDIO
    TITLE "3:cjc154_1357"
    INDEX 01 06:54:34
  TRACK 217 AUDIO
    TITLE "2:cjc154_1358"
    INDEX 01 06:55:65
  TRACK 218 AUDIO
    TITLE "3:cjc154_1359"
    INDEX 01 06:58:61
  TRACK 219 AUDIO
    TITLE "0:"
    INDEX 01 07:01:67
